<svg width="70" height="70" viewBox="0 0 70 70" fill="none" xmlns="http://www.w3.org/2000/svg">
<path d="M68.9575 33.4715C68.9537 14.9819 53.9617 -0.00373771 35.4715 6.99302e-07C16.9819 0.00373911 1.99626 14.9963 2 33.4859C2.00321 48.0502 11.4213 60.9413 25.2956 65.3713C25.428 65.413 25.5658 65.4343 25.7041 65.4338C25.968 65.4333 26.2265 65.3628 26.4534 65.2287C26.7488 65.0541 26.9693 64.7764 27.0729 64.449L35.5276 37.6521C37.839 37.6404 39.7029 35.7568 39.6906 33.4459C39.6788 31.1345 37.7957 29.2706 35.4843 29.2824C34.8627 29.285 34.2491 29.4282 33.6904 29.7011L22.5212 18.5302C21.9668 17.9951 21.084 18.0106 20.5489 18.5644C20.0266 19.1054 20.0266 19.962 20.5489 20.503L31.7123 31.6792C30.8557 33.4277 31.3454 35.5383 32.8856 36.7303L24.8299 62.2647C8.90964 56.4002 0.757782 38.7405 6.62227 22.8203C12.4868 6.90002 30.1464 -1.25183 46.0667 4.61266C61.987 10.4771 70.1388 28.1374 64.2743 44.0571C61.4091 51.8351 55.5222 58.1252 47.9509 61.4989L47.0803 57.3989C46.9212 56.6454 46.1805 56.1636 45.4269 56.3233C45.1892 56.3741 44.9687 56.4857 44.7871 56.6475L36.3938 64.1409C35.8181 64.653 35.7669 65.5347 36.2796 66.1105C36.4462 66.2974 36.6598 66.4362 36.8991 66.5126L47.6149 69.9327C48.3482 70.1682 49.1338 69.765 49.3693 69.0312C49.4441 68.7994 49.4564 68.5527 49.4062 68.3145L48.5506 64.2915C60.9413 59.0678 68.9863 46.918 68.9575 33.4715ZM35.479 32.0766C36.2491 32.0766 36.874 32.7014 36.874 33.4715C36.874 34.2422 36.2491 34.8665 35.479 34.8665C34.7084 34.8665 34.084 34.2422 34.084 33.4715C34.084 32.7014 34.7084 32.0766 35.479 32.0766ZM40.0735 64.5916L44.8512 60.3298L46.1698 66.543L40.0735 64.5916Z" fill="#212121" style="fill:#212121;fill:color(display-p3 0.1294 0.1294 0.1294);fill-opacity:1;"/>
<path d="M33.5879 6.96729V9.7572C33.5879 10.5278 34.2122 11.1522 34.9828 11.1522C35.753 11.1522 36.3778 10.5278 36.3778 9.7572V6.96729C36.3778 6.19717 35.753 5.57233 34.9828 5.57233C34.2122 5.57233 33.5879 6.19717 33.5879 6.96729Z" fill="#2196F3" style="fill:#2196F3;fill:color(display-p3 0.1294 0.5882 0.9529);fill-opacity:1;"/>
<path d="M8.4787 32.0765C7.70805 32.0765 7.08374 32.7014 7.08374 33.4715C7.08374 34.2421 7.70805 34.8665 8.4787 34.8665H11.2686C12.0393 34.8665 12.6636 34.2421 12.6636 33.4715C12.6636 32.7014 12.0393 32.0765 11.2686 32.0765H8.4787Z" fill="#2196F3" style="fill:#2196F3;fill:color(display-p3 0.1294 0.5882 0.9529);fill-opacity:1;"/>
<path d="M61.4865 34.8665C62.2572 34.8665 62.8815 34.2421 62.8815 33.4715C62.8815 32.7014 62.2572 32.0765 61.4865 32.0765H58.6966C57.9265 32.0765 57.3016 32.7014 57.3016 33.4715C57.3016 34.2421 57.9265 34.8665 58.6966 34.8665H61.4865Z" fill="#2196F3" style="fill:#2196F3;fill:color(display-p3 0.1294 0.5882 0.9529);fill-opacity:1;"/>
</svg>
